<svg width="513" height="456" viewBox="0 0 513 456" fill="none" xmlns="http://www.w3.org/2000/svg">
<path d="M247.8 85.2883L256.588 101.473L265.376 85.2886C273.441 70.4357 286.977 50.3499 307.028 34.7218L300.881 26.8344L307.028 34.7217C327.77 18.5555 351.09 10.4629 376.588 10.4629C447.778 10.4629 502.588 69.0396 502.588 149.124C502.588 191.853 485.703 228.23 454.591 266.064C423.225 304.206 378.152 342.959 322.716 390.568L329.231 398.154L322.716 390.568L322.713 390.57C303.956 406.68 282.656 424.973 260.508 444.493L260.505 444.496C259.417 445.455 258.029 445.979 256.588 445.979C255.147 445.979 253.759 445.455 252.673 444.496L252.668 444.491C230.536 424.987 209.249 406.704 190.511 390.611L190.472 390.578L190.472 390.578C135.03 342.964 89.9537 304.208 58.5864 266.065C27.4728 228.229 10.5879 191.853 10.5879 149.124C10.5879 69.0396 65.3979 10.4629 136.588 10.4629C162.085 10.4629 185.406 18.5555 206.148 34.7217C226.199 50.35 239.735 70.4348 247.8 85.2883Z" fill="white" stroke="black" stroke-width="20"/>
</svg>
