<svg width="513" height="457" viewBox="0 0 513 457" fill="none" xmlns="http://www.w3.org/2000/svg">
<path d="M247.845 85.7774L256.633 101.963L265.421 85.7776C273.486 70.9247 287.022 50.839 307.074 35.2108L300.926 27.3234L307.074 35.2108C327.815 19.0446 351.136 10.9519 376.633 10.9519C447.823 10.9519 502.633 69.5286 502.633 149.613C502.633 192.342 485.748 228.719 454.636 266.553C423.27 304.695 378.197 343.448 322.761 391.057L329.276 398.643L322.761 391.057L322.755 391.062C303.998 407.171 282.7 425.463 260.553 444.982L260.55 444.985C259.463 445.944 258.074 446.468 256.633 446.468C255.192 446.468 253.805 445.944 252.718 444.985L252.713 444.98C230.58 425.475 209.291 407.191 190.552 391.097L190.518 391.067L190.517 391.067C135.075 343.453 89.999 304.698 58.6317 266.554C27.518 228.718 10.6332 192.342 10.6332 149.613C10.6332 69.5286 65.4432 10.9519 136.633 10.9519C162.131 10.9519 185.451 19.0446 206.193 35.2108C226.245 50.839 239.78 70.9238 247.845 85.7774Z" stroke="black" stroke-width="20"/>
</svg>
