<svg width="513" height="456" viewBox="0 0 513 456" fill="none" xmlns="http://www.w3.org/2000/svg">
<path d="M376.919 0.172363C349.136 0.172363 323.664 9.04484 301.212 26.5439C279.687 43.3204 265.356 64.6883 256.919 80.2262C248.482 64.6873 234.151 43.3204 212.626 26.5439C190.174 9.04484 164.702 0.172363 136.919 0.172363C59.3867 0.172363 0.918701 64.0826 0.918701 148.834C0.918701 240.394 73.8617 303.039 184.288 397.874C203.04 413.979 224.295 432.234 246.387 451.703C249.299 454.273 253.039 455.688 256.919 455.688C260.799 455.688 264.539 454.273 267.451 451.704C289.545 432.232 310.799 413.978 329.562 397.864C439.976 303.039 512.919 240.394 512.919 148.834C512.919 64.0826 454.451 0.172363 376.919 0.172363Z" fill="url(#paint0_linear)"/>
<defs>
<linearGradient id="paint0_linear" x1="256.919" y1="0.172363" x2="256.919" y2="455.688" gradientUnits="userSpaceOnUse">
<stop stop-color="#FF79DA"/>
<stop offset="1" stop-color="#9356DC"/>
</linearGradient>
</defs>
</svg>
